# xmcd
#
# Track frame offsets:
#	150
#	28539
#	36864
#	52826
#	68108
#	76592
#	87684
#	101117
#	111270
#	123668
#	134542
#	148570
#	160222
#	170324
#	181249
#	192474
#
# Disc length: 2684 seconds
#
# Revision: 1
# Processed by: cddbd v1.5.2PL0 Copyright (c) Steve Scherf et al.
# Submitted via: audiograbber 1.82.01
#
DISCID=dc0a7a10
DTITLE=Various Artist - Best Country Hits CD 5
DYEAR=2010
DGENRE=Country
TTITLE0=Johnny Cash - Starkville City Jail
TTITLE1=Willie Nelson - Things To Remember
TTITLE2=Kenny Rogers - Tulsa Turnaround
TTITLE3=Willie Nelson - And So Will You My Love
TTITLE4=Johnny Cash and The Tennessee Two - The Wreck Of The Old 97
TTITLE5=Roger Miller - King Of The Road
TTITLE6=Kenny Rogers - Shine On Ruby Mountain
TTITLE7=Johnny Cash and The Tennessee Two - I Was There When It Happened
TTITLE8=Willie Nelson - I Can´t Find The Time
TTITLE9=Johnny Cash and The Tennessee Two - I Heard That Lonesome Whistle
TTITLE10=Tom T Hall  - Week In A Country Jail
TTITLE11=Johnny Cash and The Tennessee Two - Doin´my Time
TTITLE12=Willie Nelson - Healing Hands Of Time
TTITLE13=Kenny Rogers - We All Got To Help Each Other
TTITLE14=Dolly Parton - It Wasn´t God Who Made Honky T
TTITLE15=Johnny Cash and The Tennessee Two - Remeber Me
EXTD=
EXTT0=
EXTT1=
EXTT2=
EXTT3=
EXTT4=
EXTT5=
EXTT6=
EXTT7=
EXTT8=
EXTT9=
EXTT10=
EXTT11=
EXTT12=
EXTT13=
EXTT14=
EXTT15=
PLAYORDER=
